# xmcd
#
# Track frame offsets: 
#        150
#        16482
#        29423
#        50382
#        68509
#        86285
#        102610
#        120761
#        138596
#        154221
#        173511
#        191470
#
# Disc length: 2788 seconds
#
# Revision: 0
# Processed by: cddbd v1.5.2PL0 Copyright (c) Steve Scherf et al.
# Submitted via: ExactAudioCopyFreeDBPlugin 1.0
#
DISCID=900ae20c
DTITLE=Jackie Bristow - Crazy Love
DYEAR=2007
DGENRE=New Zealand: Country/Blues
TTITLE0=The World is Turning
TTITLE1=Tempted
TTITLE2=Crazy Love
TTITLE3=Rollercoaster
TTITLE4=Broken Record
TTITLE5=Close to the Bone
TTITLE6=Innocence
TTITLE7=Pray for the Love
TTITLE8=River to My Soul
TTITLE9=Across the World
TTITLE10=No Easy Way to Say Goodbye
TTITLE11=It's Gonna Be Alright
EXTD=
EXTT0=
EXTT1=
EXTT2=
EXTT3=
EXTT4=
EXTT5=
EXTT6=
EXTT7=
EXTT8=
EXTT9=
EXTT10=
EXTT11=
PLAYORDER=
